<mxfile host="app.diagrams.net" modified="2024-05-23T19:27:09.066Z" agent="Mozilla/5.0 (Windows NT 10.0; Win64; x64) AppleWebKit/537.36 (KHTML, like Gecko) Chrome/122.0.0.0 YaBrowser/24.4.0.0 Safari/537.36" etag="oYCJin_vRstByjP_VOYA" version="24.4.6" type="google" pages="4">
  <diagram name="Страница — 1" id="s-OYFzbA8mPDWKXUHoG3">
    <mxGraphModel grid="1" page="1" gridSize="10" guides="1" tooltips="1" connect="1" arrows="1" fold="1" pageScale="1" pageWidth="827" pageHeight="1169" math="0" shadow="0">
      <root>
        <mxCell id="0" />
        <mxCell id="1" parent="0" />
        <mxCell id="wIAeMnB86bG1jlFtbA1i-1" value="Marlon Brando" style="ellipse;whiteSpace=wrap;html=1;aspect=fixed;verticalAlign=bottom;" vertex="1" parent="1">
          <mxGeometry x="609" y="40" width="80" height="80" as="geometry" />
        </mxCell>
        <mxCell id="wIAeMnB86bG1jlFtbA1i-3" value="2" style="ellipse;whiteSpace=wrap;html=1;aspect=fixed;fontSize=16;" vertex="1" parent="1">
          <mxGeometry x="634" y="40" width="30" height="30" as="geometry" />
        </mxCell>
        <mxCell id="wIAeMnB86bG1jlFtbA1i-6" value="Leonardo DiCaprio" style="ellipse;whiteSpace=wrap;html=1;aspect=fixed;verticalAlign=bottom;" vertex="1" parent="1">
          <mxGeometry x="118" y="40" width="80" height="80" as="geometry" />
        </mxCell>
        <mxCell id="wIAeMnB86bG1jlFtbA1i-7" value="1" style="ellipse;whiteSpace=wrap;html=1;aspect=fixed;fontSize=16;" vertex="1" parent="1">
          <mxGeometry x="143" y="40" width="30" height="30" as="geometry" />
        </mxCell>
        <mxCell id="wIAeMnB86bG1jlFtbA1i-21" value="Samuel L. Jackson" style="ellipse;whiteSpace=wrap;html=1;aspect=fixed;verticalAlign=bottom;" vertex="1" parent="1">
          <mxGeometry x="319" y="240" width="80" height="80" as="geometry" />
        </mxCell>
        <mxCell id="wIAeMnB86bG1jlFtbA1i-22" value="3" style="ellipse;whiteSpace=wrap;html=1;aspect=fixed;fontSize=16;" vertex="1" parent="1">
          <mxGeometry x="344" y="240" width="30" height="30" as="geometry" />
        </mxCell>
        <mxCell id="wIAeMnB86bG1jlFtbA1i-23" value="Christian&lt;div&gt;Bale&lt;/div&gt;" style="ellipse;whiteSpace=wrap;html=1;aspect=fixed;verticalAlign=bottom;" vertex="1" parent="1">
          <mxGeometry x="464" y="330" width="80" height="80" as="geometry" />
        </mxCell>
        <mxCell id="wIAeMnB86bG1jlFtbA1i-24" value="4" style="ellipse;whiteSpace=wrap;html=1;aspect=fixed;fontSize=16;" vertex="1" parent="1">
          <mxGeometry x="489" y="330" width="30" height="30" as="geometry" />
        </mxCell>
        <mxCell id="wIAeMnB86bG1jlFtbA1i-25" value="Tom&lt;div&gt;Hanks&lt;/div&gt;" style="ellipse;whiteSpace=wrap;html=1;aspect=fixed;verticalAlign=bottom;" vertex="1" parent="1">
          <mxGeometry x="219" y="270" width="80" height="80" as="geometry" />
        </mxCell>
        <mxCell id="wIAeMnB86bG1jlFtbA1i-26" value="5" style="ellipse;whiteSpace=wrap;html=1;aspect=fixed;fontSize=16;" vertex="1" parent="1">
          <mxGeometry x="244" y="270" width="30" height="30" as="geometry" />
        </mxCell>
        <mxCell id="wIAeMnB86bG1jlFtbA1i-27" value="&lt;div&gt;Keanu Reeves&lt;/div&gt;" style="ellipse;whiteSpace=wrap;html=1;aspect=fixed;verticalAlign=bottom;" vertex="1" parent="1">
          <mxGeometry x="30" y="40" width="80" height="80" as="geometry" />
        </mxCell>
        <mxCell id="wIAeMnB86bG1jlFtbA1i-28" value="6" style="ellipse;whiteSpace=wrap;html=1;aspect=fixed;fontSize=16;" vertex="1" parent="1">
          <mxGeometry x="55" y="40" width="30" height="30" as="geometry" />
        </mxCell>
        <mxCell id="wIAeMnB86bG1jlFtbA1i-29" value="Brad&lt;div&gt;Pitt&lt;/div&gt;" style="ellipse;whiteSpace=wrap;html=1;aspect=fixed;verticalAlign=bottom;" vertex="1" parent="1">
          <mxGeometry x="719" y="300" width="80" height="80" as="geometry" />
        </mxCell>
        <mxCell id="wIAeMnB86bG1jlFtbA1i-30" value="7" style="ellipse;whiteSpace=wrap;html=1;aspect=fixed;fontSize=16;" vertex="1" parent="1">
          <mxGeometry x="744" y="300" width="30" height="30" as="geometry" />
        </mxCell>
        <mxCell id="wIAeMnB86bG1jlFtbA1i-31" value="&lt;div&gt;Morgan Freeman&lt;/div&gt;" style="ellipse;whiteSpace=wrap;html=1;aspect=fixed;verticalAlign=bottom;" vertex="1" parent="1">
          <mxGeometry x="15" y="190" width="80" height="80" as="geometry" />
        </mxCell>
        <mxCell id="wIAeMnB86bG1jlFtbA1i-32" value="8" style="ellipse;whiteSpace=wrap;html=1;aspect=fixed;fontSize=16;" vertex="1" parent="1">
          <mxGeometry x="40" y="190" width="30" height="30" as="geometry" />
        </mxCell>
        <mxCell id="wIAeMnB86bG1jlFtbA1i-33" value="Elijah&lt;div&gt;Wood&lt;/div&gt;" style="ellipse;whiteSpace=wrap;html=1;aspect=fixed;verticalAlign=bottom;" vertex="1" parent="1">
          <mxGeometry x="440" width="80" height="80" as="geometry" />
        </mxCell>
        <mxCell id="wIAeMnB86bG1jlFtbA1i-34" value="9" style="ellipse;whiteSpace=wrap;html=1;aspect=fixed;fontSize=16;" vertex="1" parent="1">
          <mxGeometry x="465" width="30" height="30" as="geometry" />
        </mxCell>
        <mxCell id="wIAeMnB86bG1jlFtbA1i-35" value="&#39;Matthew McConaughey" style="ellipse;whiteSpace=wrap;html=1;aspect=fixed;verticalAlign=bottom;" vertex="1" parent="1">
          <mxGeometry x="730" y="40" width="80" height="80" as="geometry" />
        </mxCell>
        <mxCell id="wIAeMnB86bG1jlFtbA1i-36" value="10" style="ellipse;whiteSpace=wrap;html=1;aspect=fixed;fontSize=16;" vertex="1" parent="1">
          <mxGeometry x="755" y="40" width="30" height="30" as="geometry" />
        </mxCell>
        <mxCell id="eULE9NiephwDy846-TMm-1" value="Inception" style="rounded=0;whiteSpace=wrap;html=1;verticalAlign=bottom;" vertex="1" parent="1">
          <mxGeometry x="299" y="340" width="120" height="60" as="geometry" />
        </mxCell>
        <mxCell id="eULE9NiephwDy846-TMm-2" value="1" style="whiteSpace=wrap;html=1;aspect=fixed;fontSize=16;" vertex="1" parent="1">
          <mxGeometry x="344" y="340" width="30" height="30" as="geometry" />
        </mxCell>
        <mxCell id="eULE9NiephwDy846-TMm-3" value="The Godfather" style="rounded=0;whiteSpace=wrap;html=1;verticalAlign=bottom;" vertex="1" parent="1">
          <mxGeometry x="204" y="120" width="120" height="60" as="geometry" />
        </mxCell>
        <mxCell id="eULE9NiephwDy846-TMm-4" value="2" style="whiteSpace=wrap;html=1;aspect=fixed;fontSize=16;" vertex="1" parent="1">
          <mxGeometry x="249" y="120" width="30" height="30" as="geometry" />
        </mxCell>
        <mxCell id="eULE9NiephwDy846-TMm-5" value="Pulp Fiction" style="rounded=0;whiteSpace=wrap;html=1;verticalAlign=bottom;" vertex="1" parent="1">
          <mxGeometry x="159" y="200" width="120" height="60" as="geometry" />
        </mxCell>
        <mxCell id="eULE9NiephwDy846-TMm-6" value="3" style="whiteSpace=wrap;html=1;aspect=fixed;fontSize=16;" vertex="1" parent="1">
          <mxGeometry x="204" y="200" width="30" height="30" as="geometry" />
        </mxCell>
        <mxCell id="eULE9NiephwDy846-TMm-7" value="The Dark Knight" style="rounded=0;whiteSpace=wrap;html=1;verticalAlign=bottom;" vertex="1" parent="1">
          <mxGeometry x="279" y="20" width="120" height="60" as="geometry" />
        </mxCell>
        <mxCell id="eULE9NiephwDy846-TMm-8" value="4" style="whiteSpace=wrap;html=1;aspect=fixed;fontSize=16;" vertex="1" parent="1">
          <mxGeometry x="324" y="20" width="30" height="30" as="geometry" />
        </mxCell>
        <mxCell id="eULE9NiephwDy846-TMm-9" value="&lt;div&gt;&lt;br&gt;&lt;/div&gt;&lt;div&gt;Forrest Gump&lt;/div&gt;" style="rounded=0;whiteSpace=wrap;html=1;verticalAlign=bottom;" vertex="1" parent="1">
          <mxGeometry x="544" y="160" width="120" height="60" as="geometry" />
        </mxCell>
        <mxCell id="eULE9NiephwDy846-TMm-10" value="5" style="whiteSpace=wrap;html=1;aspect=fixed;fontSize=16;" vertex="1" parent="1">
          <mxGeometry x="589" y="160" width="30" height="30" as="geometry" />
        </mxCell>
        <mxCell id="eULE9NiephwDy846-TMm-11" value="The Matrix" style="rounded=0;whiteSpace=wrap;html=1;verticalAlign=bottom;" vertex="1" parent="1">
          <mxGeometry x="84" y="320" width="120" height="60" as="geometry" />
        </mxCell>
        <mxCell id="eULE9NiephwDy846-TMm-12" value="6" style="whiteSpace=wrap;html=1;aspect=fixed;fontSize=16;" vertex="1" parent="1">
          <mxGeometry x="129" y="320" width="30" height="30" as="geometry" />
        </mxCell>
        <mxCell id="eULE9NiephwDy846-TMm-13" value="Fight Club" style="rounded=0;whiteSpace=wrap;html=1;verticalAlign=bottom;" vertex="1" parent="1">
          <mxGeometry x="410" y="160" width="120" height="60" as="geometry" />
        </mxCell>
        <mxCell id="eULE9NiephwDy846-TMm-14" value="7" style="whiteSpace=wrap;html=1;aspect=fixed;fontSize=16;" vertex="1" parent="1">
          <mxGeometry x="455" y="160" width="30" height="30" as="geometry" />
        </mxCell>
        <mxCell id="eULE9NiephwDy846-TMm-15" value="The Shawshank Redemption" style="rounded=0;whiteSpace=wrap;html=1;verticalAlign=bottom;" vertex="1" parent="1">
          <mxGeometry x="690" y="430" width="120" height="60" as="geometry" />
        </mxCell>
        <mxCell id="eULE9NiephwDy846-TMm-16" value="8" style="whiteSpace=wrap;html=1;aspect=fixed;fontSize=16;" vertex="1" parent="1">
          <mxGeometry x="735" y="430" width="30" height="30" as="geometry" />
        </mxCell>
        <mxCell id="eULE9NiephwDy846-TMm-17" value="&lt;div style=&quot;&quot;&gt;&lt;span style=&quot;background-color: initial; font-size: 11px;&quot;&gt;The Lord of the Rings: The Return of the King&lt;/span&gt;&lt;/div&gt;" style="rounded=0;whiteSpace=wrap;html=1;verticalAlign=bottom;align=center;" vertex="1" parent="1">
          <mxGeometry x="424" y="250" width="120" height="60" as="geometry" />
        </mxCell>
        <mxCell id="eULE9NiephwDy846-TMm-18" value="9" style="whiteSpace=wrap;html=1;aspect=fixed;fontSize=16;" vertex="1" parent="1">
          <mxGeometry x="469" y="250" width="30" height="30" as="geometry" />
        </mxCell>
        <mxCell id="eULE9NiephwDy846-TMm-19" value="Interstellar" style="rounded=0;whiteSpace=wrap;html=1;verticalAlign=bottom;" vertex="1" parent="1">
          <mxGeometry x="690" y="190" width="120" height="60" as="geometry" />
        </mxCell>
        <mxCell id="eULE9NiephwDy846-TMm-20" value="10" style="whiteSpace=wrap;html=1;aspect=fixed;fontSize=16;" vertex="1" parent="1">
          <mxGeometry x="735" y="190" width="30" height="30" as="geometry" />
        </mxCell>
        <mxCell id="eULE9NiephwDy846-TMm-41" value="" style="endArrow=classic;html=1;rounded=0;exitX=0;exitY=0.5;exitDx=0;exitDy=0;entryX=0.5;entryY=0;entryDx=0;entryDy=0;" edge="1" parent="1" source="wIAeMnB86bG1jlFtbA1i-25" target="eULE9NiephwDy846-TMm-12">
          <mxGeometry width="50" height="50" relative="1" as="geometry">
            <mxPoint x="388" y="205" as="sourcePoint" />
            <mxPoint x="182" y="585" as="targetPoint" />
            <Array as="points">
              <mxPoint x="174" y="310" />
            </Array>
          </mxGeometry>
        </mxCell>
        <mxCell id="eULE9NiephwDy846-TMm-42" value="" style="endArrow=classic;html=1;rounded=0;entryX=0.5;entryY=0;entryDx=0;entryDy=0;exitX=0.5;exitY=1;exitDx=0;exitDy=0;" edge="1" parent="1" source="wIAeMnB86bG1jlFtbA1i-21" target="eULE9NiephwDy846-TMm-2">
          <mxGeometry width="50" height="50" relative="1" as="geometry">
            <mxPoint x="446" y="45" as="sourcePoint" />
            <mxPoint x="271" y="595" as="targetPoint" />
          </mxGeometry>
        </mxCell>
        <mxCell id="eULE9NiephwDy846-TMm-43" value="" style="endArrow=classic;html=1;rounded=0;entryX=1;entryY=0;entryDx=0;entryDy=0;" edge="1" parent="1" target="eULE9NiephwDy846-TMm-4">
          <mxGeometry width="50" height="50" relative="1" as="geometry">
            <mxPoint x="200" y="80" as="sourcePoint" />
            <mxPoint x="594.03" y="645" as="targetPoint" />
            <Array as="points">
              <mxPoint x="250" y="80" />
            </Array>
          </mxGeometry>
        </mxCell>
        <mxCell id="eULE9NiephwDy846-TMm-44" value="" style="endArrow=classic;html=1;rounded=0;entryX=0;entryY=0.5;entryDx=0;entryDy=0;exitX=1;exitY=0.5;exitDx=0;exitDy=0;" edge="1" parent="1" source="wIAeMnB86bG1jlFtbA1i-31" target="eULE9NiephwDy846-TMm-5">
          <mxGeometry width="50" height="50" relative="1" as="geometry">
            <mxPoint x="280" y="630" as="sourcePoint" />
            <mxPoint x="299" y="640" as="targetPoint" />
            <Array as="points" />
          </mxGeometry>
        </mxCell>
        <mxCell id="eULE9NiephwDy846-TMm-45" value="" style="endArrow=classic;html=1;rounded=0;entryX=0.5;entryY=0;entryDx=0;entryDy=0;" edge="1" parent="1" source="wIAeMnB86bG1jlFtbA1i-1" target="eULE9NiephwDy846-TMm-10">
          <mxGeometry width="50" height="50" relative="1" as="geometry">
            <mxPoint x="870" y="205" as="sourcePoint" />
            <mxPoint x="699" y="825" as="targetPoint" />
          </mxGeometry>
        </mxCell>
        <mxCell id="eULE9NiephwDy846-TMm-46" value="" style="endArrow=classic;html=1;rounded=0;entryX=1;entryY=0.5;entryDx=0;entryDy=0;" edge="1" parent="1" source="wIAeMnB86bG1jlFtbA1i-33" target="eULE9NiephwDy846-TMm-7">
          <mxGeometry width="50" height="50" relative="1" as="geometry">
            <mxPoint x="271" y="115" as="sourcePoint" />
            <mxPoint x="536.03" y="435" as="targetPoint" />
          </mxGeometry>
        </mxCell>
        <mxCell id="eULE9NiephwDy846-TMm-47" value="" style="endArrow=classic;html=1;rounded=0;exitX=0.5;exitY=1;exitDx=0;exitDy=0;entryX=0.5;entryY=0;entryDx=0;entryDy=0;" edge="1" parent="1" source="wIAeMnB86bG1jlFtbA1i-29" target="eULE9NiephwDy846-TMm-16">
          <mxGeometry width="50" height="50" relative="1" as="geometry">
            <mxPoint x="540" y="185" as="sourcePoint" />
            <mxPoint x="784" y="625" as="targetPoint" />
          </mxGeometry>
        </mxCell>
        <mxCell id="eULE9NiephwDy846-TMm-48" value="" style="endArrow=classic;html=1;rounded=0;entryX=1;entryY=0.5;entryDx=0;entryDy=0;exitX=0.5;exitY=0;exitDx=0;exitDy=0;" edge="1" parent="1" source="wIAeMnB86bG1jlFtbA1i-22" target="eULE9NiephwDy846-TMm-3">
          <mxGeometry width="50" height="50" relative="1" as="geometry">
            <mxPoint x="780" y="520" as="sourcePoint" />
            <mxPoint x="772" y="835" as="targetPoint" />
            <Array as="points">
              <mxPoint x="350" y="190" />
            </Array>
          </mxGeometry>
        </mxCell>
        <mxCell id="eULE9NiephwDy846-TMm-49" value="" style="endArrow=classic;html=1;rounded=0;entryX=0;entryY=0.5;entryDx=0;entryDy=0;exitX=1;exitY=0;exitDx=0;exitDy=0;" edge="1" parent="1" source="wIAeMnB86bG1jlFtbA1i-6" target="eULE9NiephwDy846-TMm-7">
          <mxGeometry width="50" height="50" relative="1" as="geometry">
            <mxPoint x="110" y="570" as="sourcePoint" />
            <mxPoint x="210" y="540" as="targetPoint" />
            <Array as="points">
              <mxPoint x="230" y="40" />
            </Array>
          </mxGeometry>
        </mxCell>
        <mxCell id="eULE9NiephwDy846-TMm-50" value="" style="endArrow=classic;html=1;rounded=0;entryX=0.75;entryY=0;entryDx=0;entryDy=0;exitX=0.5;exitY=1;exitDx=0;exitDy=0;" edge="1" parent="1" source="wIAeMnB86bG1jlFtbA1i-35" target="eULE9NiephwDy846-TMm-19">
          <mxGeometry width="50" height="50" relative="1" as="geometry">
            <mxPoint x="884" y="875" as="sourcePoint" />
            <mxPoint x="804" y="835" as="targetPoint" />
          </mxGeometry>
        </mxCell>
        <mxCell id="eULE9NiephwDy846-TMm-51" value="" style="endArrow=classic;html=1;rounded=0;exitX=0.5;exitY=1;exitDx=0;exitDy=0;" edge="1" parent="1" source="wIAeMnB86bG1jlFtbA1i-31">
          <mxGeometry width="50" height="50" relative="1" as="geometry">
            <mxPoint x="516" y="325" as="sourcePoint" />
            <mxPoint x="600" y="220" as="targetPoint" />
            <Array as="points">
              <mxPoint x="55" y="440" />
              <mxPoint x="600" y="440" />
            </Array>
          </mxGeometry>
        </mxCell>
        <mxCell id="eULE9NiephwDy846-TMm-52" value="" style="endArrow=classic;html=1;rounded=0;exitX=0.5;exitY=1;exitDx=0;exitDy=0;entryX=0.25;entryY=0;entryDx=0;entryDy=0;" edge="1" parent="1" source="wIAeMnB86bG1jlFtbA1i-6" target="eULE9NiephwDy846-TMm-5">
          <mxGeometry width="50" height="50" relative="1" as="geometry">
            <mxPoint x="163" y="1115" as="sourcePoint" />
            <mxPoint x="270" y="510" as="targetPoint" />
          </mxGeometry>
        </mxCell>
        <mxCell id="eULE9NiephwDy846-TMm-53" value="" style="edgeStyle=none;orthogonalLoop=1;jettySize=auto;html=1;rounded=0;exitX=0.063;exitY=0.738;exitDx=0;exitDy=0;entryX=0.808;entryY=0.017;entryDx=0;entryDy=0;entryPerimeter=0;exitPerimeter=0;" edge="1" parent="1" source="wIAeMnB86bG1jlFtbA1i-1" target="eULE9NiephwDy846-TMm-13">
          <mxGeometry width="100" relative="1" as="geometry">
            <mxPoint x="404" y="130" as="sourcePoint" />
            <mxPoint x="448" y="90" as="targetPoint" />
            <Array as="points">
              <mxPoint x="550" y="120" />
            </Array>
          </mxGeometry>
        </mxCell>
      </root>
    </mxGraphModel>
  </diagram>
  <diagram id="kFEbRxA50baIVddLMZP2" name="Страница — 2">
    <mxGraphModel grid="1" page="1" gridSize="10" guides="1" tooltips="1" connect="1" arrows="1" fold="1" pageScale="1" pageWidth="827" pageHeight="1169" math="0" shadow="0">
      <root>
        <mxCell id="0" />
        <mxCell id="1" parent="0" />
        <mxCell id="LJGmnEYm_ZqIbqoqBScH-1" value="Inception" style="rounded=0;whiteSpace=wrap;html=1;verticalAlign=bottom;" vertex="1" parent="1">
          <mxGeometry x="110" y="120" width="120" height="60" as="geometry" />
        </mxCell>
        <mxCell id="37xWDbqT6-LZwvEaMDOD-1" value="1" style="whiteSpace=wrap;html=1;aspect=fixed;fontSize=16;" vertex="1" parent="1">
          <mxGeometry x="155" y="120" width="30" height="30" as="geometry" />
        </mxCell>
        <mxCell id="Ek323urB8e4tYzdF1iMw-1" value="The Godfather" style="rounded=0;whiteSpace=wrap;html=1;verticalAlign=bottom;" vertex="1" parent="1">
          <mxGeometry x="640" y="60" width="120" height="60" as="geometry" />
        </mxCell>
        <mxCell id="Ek323urB8e4tYzdF1iMw-2" value="2" style="whiteSpace=wrap;html=1;aspect=fixed;fontSize=16;" vertex="1" parent="1">
          <mxGeometry x="685" y="60" width="30" height="30" as="geometry" />
        </mxCell>
        <mxCell id="Ek323urB8e4tYzdF1iMw-3" value="Pulp Fiction" style="rounded=0;whiteSpace=wrap;html=1;verticalAlign=bottom;" vertex="1" parent="1">
          <mxGeometry x="155" y="400" width="120" height="60" as="geometry" />
        </mxCell>
        <mxCell id="Ek323urB8e4tYzdF1iMw-4" value="3" style="whiteSpace=wrap;html=1;aspect=fixed;fontSize=16;" vertex="1" parent="1">
          <mxGeometry x="200" y="400" width="30" height="30" as="geometry" />
        </mxCell>
        <mxCell id="Ek323urB8e4tYzdF1iMw-5" value="The Dark Knight" style="rounded=0;whiteSpace=wrap;html=1;verticalAlign=bottom;" vertex="1" parent="1">
          <mxGeometry x="500" y="470" width="120" height="60" as="geometry" />
        </mxCell>
        <mxCell id="Ek323urB8e4tYzdF1iMw-6" value="4" style="whiteSpace=wrap;html=1;aspect=fixed;fontSize=16;" vertex="1" parent="1">
          <mxGeometry x="545" y="470" width="30" height="30" as="geometry" />
        </mxCell>
        <mxCell id="Ek323urB8e4tYzdF1iMw-7" value="&lt;div&gt;&lt;br&gt;&lt;/div&gt;&lt;div&gt;Forrest Gump&lt;/div&gt;" style="rounded=0;whiteSpace=wrap;html=1;verticalAlign=bottom;" vertex="1" parent="1">
          <mxGeometry x="640" y="160" width="120" height="60" as="geometry" />
        </mxCell>
        <mxCell id="Ek323urB8e4tYzdF1iMw-8" value="5" style="whiteSpace=wrap;html=1;aspect=fixed;fontSize=16;" vertex="1" parent="1">
          <mxGeometry x="685" y="160" width="30" height="30" as="geometry" />
        </mxCell>
        <mxCell id="Ek323urB8e4tYzdF1iMw-9" value="The Matrix" style="rounded=0;whiteSpace=wrap;html=1;verticalAlign=bottom;" vertex="1" parent="1">
          <mxGeometry x="21" y="320" width="120" height="60" as="geometry" />
        </mxCell>
        <mxCell id="Ek323urB8e4tYzdF1iMw-10" value="6" style="whiteSpace=wrap;html=1;aspect=fixed;fontSize=16;" vertex="1" parent="1">
          <mxGeometry x="66" y="320" width="30" height="30" as="geometry" />
        </mxCell>
        <mxCell id="Ek323urB8e4tYzdF1iMw-11" value="Fight Club" style="rounded=0;whiteSpace=wrap;html=1;verticalAlign=bottom;" vertex="1" parent="1">
          <mxGeometry x="316" y="400" width="120" height="60" as="geometry" />
        </mxCell>
        <mxCell id="Ek323urB8e4tYzdF1iMw-12" value="7" style="whiteSpace=wrap;html=1;aspect=fixed;fontSize=16;" vertex="1" parent="1">
          <mxGeometry x="361" y="400" width="30" height="30" as="geometry" />
        </mxCell>
        <mxCell id="Ek323urB8e4tYzdF1iMw-13" value="The Shawshank Redemption" style="rounded=0;whiteSpace=wrap;html=1;verticalAlign=bottom;" vertex="1" parent="1">
          <mxGeometry x="316" y="25" width="120" height="60" as="geometry" />
        </mxCell>
        <mxCell id="Ek323urB8e4tYzdF1iMw-14" value="8" style="whiteSpace=wrap;html=1;aspect=fixed;fontSize=16;" vertex="1" parent="1">
          <mxGeometry x="361" y="25" width="30" height="30" as="geometry" />
        </mxCell>
        <mxCell id="Ek323urB8e4tYzdF1iMw-15" value="&lt;div style=&quot;&quot;&gt;&lt;span style=&quot;background-color: initial; font-size: 11px;&quot;&gt;The Lord of the Rings: The Return of the King&lt;/span&gt;&lt;/div&gt;" style="rounded=0;whiteSpace=wrap;html=1;verticalAlign=bottom;align=center;" vertex="1" parent="1">
          <mxGeometry x="455" y="340" width="120" height="60" as="geometry" />
        </mxCell>
        <mxCell id="Ek323urB8e4tYzdF1iMw-16" value="9" style="whiteSpace=wrap;html=1;aspect=fixed;fontSize=16;" vertex="1" parent="1">
          <mxGeometry x="500" y="340" width="30" height="30" as="geometry" />
        </mxCell>
        <mxCell id="Ek323urB8e4tYzdF1iMw-17" value="Interstellar" style="rounded=0;whiteSpace=wrap;html=1;verticalAlign=bottom;" vertex="1" parent="1">
          <mxGeometry x="681" y="360" width="120" height="60" as="geometry" />
        </mxCell>
        <mxCell id="Ek323urB8e4tYzdF1iMw-18" value="10" style="whiteSpace=wrap;html=1;aspect=fixed;fontSize=16;" vertex="1" parent="1">
          <mxGeometry x="726" y="360" width="30" height="30" as="geometry" />
        </mxCell>
        <mxCell id="X7sw5uHQVzscG8gYwSLv-54" value="Christopher Nolan" style="rounded=1;whiteSpace=wrap;html=1;arcSize=40;verticalAlign=bottom;spacingBottom=15;" vertex="1" parent="1">
          <mxGeometry x="200" y="490" width="120" height="80" as="geometry" />
        </mxCell>
        <mxCell id="X7sw5uHQVzscG8gYwSLv-55" value="1" style="whiteSpace=wrap;html=1;aspect=fixed;fontSize=16;" vertex="1" parent="1">
          <mxGeometry x="245" y="490" width="30" height="30" as="geometry" />
        </mxCell>
        <mxCell id="X7sw5uHQVzscG8gYwSLv-56" value="Francis Ford Coppola" style="rounded=1;whiteSpace=wrap;html=1;arcSize=40;verticalAlign=bottom;spacingBottom=15;" vertex="1" parent="1">
          <mxGeometry x="141" y="220" width="120" height="80" as="geometry" />
        </mxCell>
        <mxCell id="X7sw5uHQVzscG8gYwSLv-57" value="2" style="whiteSpace=wrap;html=1;aspect=fixed;fontSize=16;" vertex="1" parent="1">
          <mxGeometry x="186" y="220" width="30" height="30" as="geometry" />
        </mxCell>
        <mxCell id="X7sw5uHQVzscG8gYwSLv-58" value="Quentin Tarantino" style="rounded=1;whiteSpace=wrap;html=1;arcSize=40;verticalAlign=bottom;spacingBottom=15;" vertex="1" parent="1">
          <mxGeometry x="171" y="15" width="120" height="80" as="geometry" />
        </mxCell>
        <mxCell id="X7sw5uHQVzscG8gYwSLv-59" value="3" style="whiteSpace=wrap;html=1;aspect=fixed;fontSize=16;" vertex="1" parent="1">
          <mxGeometry x="216" y="15" width="30" height="30" as="geometry" />
        </mxCell>
        <mxCell id="X7sw5uHQVzscG8gYwSLv-60" value="James Cameron" style="rounded=1;whiteSpace=wrap;html=1;arcSize=40;verticalAlign=bottom;spacingBottom=15;" vertex="1" parent="1">
          <mxGeometry x="530" y="240" width="120" height="80" as="geometry" />
        </mxCell>
        <mxCell id="X7sw5uHQVzscG8gYwSLv-61" value="6" style="whiteSpace=wrap;html=1;aspect=fixed;fontSize=16;" vertex="1" parent="1">
          <mxGeometry x="575" y="240" width="30" height="30" as="geometry" />
        </mxCell>
        <mxCell id="X7sw5uHQVzscG8gYwSLv-62" value="Peter Jackson" style="rounded=1;whiteSpace=wrap;html=1;arcSize=40;verticalAlign=bottom;spacingBottom=15;" vertex="1" parent="1">
          <mxGeometry x="674" y="250" width="120" height="80" as="geometry" />
        </mxCell>
        <mxCell id="X7sw5uHQVzscG8gYwSLv-63" value="7" style="whiteSpace=wrap;html=1;aspect=fixed;fontSize=16;" vertex="1" parent="1">
          <mxGeometry x="719" y="250" width="30" height="30" as="geometry" />
        </mxCell>
        <mxCell id="X7sw5uHQVzscG8gYwSLv-64" value="Ridley Scott" style="rounded=1;whiteSpace=wrap;html=1;arcSize=40;verticalAlign=bottom;spacingBottom=15;" vertex="1" parent="1">
          <mxGeometry x="294" y="250" width="120" height="80" as="geometry" />
        </mxCell>
        <mxCell id="X7sw5uHQVzscG8gYwSLv-65" value="8" style="whiteSpace=wrap;html=1;aspect=fixed;fontSize=16;" vertex="1" parent="1">
          <mxGeometry x="339" y="250" width="30" height="30" as="geometry" />
        </mxCell>
        <mxCell id="X7sw5uHQVzscG8gYwSLv-66" value="Steven Spielberg" style="rounded=1;whiteSpace=wrap;html=1;arcSize=40;spacingBottom=15;verticalAlign=bottom;" vertex="1" parent="1">
          <mxGeometry x="410" y="180" width="120" height="80" as="geometry" />
        </mxCell>
        <mxCell id="X7sw5uHQVzscG8gYwSLv-67" value="4" style="whiteSpace=wrap;html=1;aspect=fixed;fontSize=16;" vertex="1" parent="1">
          <mxGeometry x="455" y="180" width="30" height="30" as="geometry" />
        </mxCell>
        <mxCell id="X7sw5uHQVzscG8gYwSLv-68" value="Guillermo del Toro" style="rounded=1;whiteSpace=wrap;html=1;arcSize=40;spacingBottom=15;verticalAlign=bottom;" vertex="1" parent="1">
          <mxGeometry x="10" y="15" width="120" height="80" as="geometry" />
        </mxCell>
        <mxCell id="X7sw5uHQVzscG8gYwSLv-69" value="9" style="whiteSpace=wrap;html=1;aspect=fixed;fontSize=16;" vertex="1" parent="1">
          <mxGeometry x="55" y="15" width="30" height="30" as="geometry" />
        </mxCell>
        <mxCell id="X7sw5uHQVzscG8gYwSLv-70" value="Martin Scorsese" style="rounded=1;whiteSpace=wrap;html=1;arcSize=40;spacingBottom=15;verticalAlign=bottom;" vertex="1" parent="1">
          <mxGeometry x="466.03" y="20" width="120" height="80" as="geometry" />
        </mxCell>
        <mxCell id="X7sw5uHQVzscG8gYwSLv-71" value="5" style="whiteSpace=wrap;html=1;aspect=fixed;fontSize=16;" vertex="1" parent="1">
          <mxGeometry x="511.03" y="20" width="30" height="30" as="geometry" />
        </mxCell>
        <mxCell id="X7sw5uHQVzscG8gYwSLv-72" value="Sofia Coppola" style="rounded=1;whiteSpace=wrap;html=1;arcSize=40;spacingBottom=15;verticalAlign=bottom;" vertex="1" parent="1">
          <mxGeometry x="674" y="460" width="120" height="80" as="geometry" />
        </mxCell>
        <mxCell id="X7sw5uHQVzscG8gYwSLv-73" value="10" style="whiteSpace=wrap;html=1;aspect=fixed;fontSize=16;" vertex="1" parent="1">
          <mxGeometry x="719" y="460" width="30" height="30" as="geometry" />
        </mxCell>
        <mxCell id="X7sw5uHQVzscG8gYwSLv-94" value="" style="endArrow=classic;html=1;rounded=0;exitX=0.5;exitY=0;exitDx=0;exitDy=0;" edge="1" parent="1" source="37xWDbqT6-LZwvEaMDOD-1">
          <mxGeometry width="50" height="50" relative="1" as="geometry">
            <mxPoint x="376" y="-330" as="sourcePoint" />
            <mxPoint x="170" y="50" as="targetPoint" />
            <Array as="points">
              <mxPoint x="140" y="90" />
            </Array>
          </mxGeometry>
        </mxCell>
        <mxCell id="X7sw5uHQVzscG8gYwSLv-95" value="" style="endArrow=classic;html=1;rounded=0;entryX=0.5;entryY=0;entryDx=0;entryDy=0;exitX=0.5;exitY=1;exitDx=0;exitDy=0;" edge="1" parent="1" source="LJGmnEYm_ZqIbqoqBScH-1" target="X7sw5uHQVzscG8gYwSLv-57">
          <mxGeometry width="50" height="50" relative="1" as="geometry">
            <mxPoint x="376" y="-330" as="sourcePoint" />
            <mxPoint x="556" y="-100" as="targetPoint" />
          </mxGeometry>
        </mxCell>
        <mxCell id="X7sw5uHQVzscG8gYwSLv-97" value="" style="endArrow=classic;html=1;rounded=0;exitX=0.75;exitY=0;exitDx=0;exitDy=0;entryX=1;entryY=0.5;entryDx=0;entryDy=0;" edge="1" parent="1" source="Ek323urB8e4tYzdF1iMw-2" target="X7sw5uHQVzscG8gYwSLv-70">
          <mxGeometry width="50" height="50" relative="1" as="geometry">
            <mxPoint x="648.0615062254819" y="-427.23072317926017" as="sourcePoint" />
            <mxPoint x="580" y="50" as="targetPoint" />
            <Array as="points">
              <mxPoint x="640" y="30" />
            </Array>
          </mxGeometry>
        </mxCell>
        <mxCell id="X7sw5uHQVzscG8gYwSLv-98" value="" style="endArrow=classic;html=1;rounded=0;entryX=1;entryY=0.5;entryDx=0;entryDy=0;exitX=0;exitY=0.5;exitDx=0;exitDy=0;" edge="1" parent="1" source="Ek323urB8e4tYzdF1iMw-13" target="X7sw5uHQVzscG8gYwSLv-58">
          <mxGeometry width="50" height="50" relative="1" as="geometry">
            <mxPoint x="428" y="-100" as="sourcePoint" />
            <mxPoint x="385" y="145" as="targetPoint" />
          </mxGeometry>
        </mxCell>
        <mxCell id="X7sw5uHQVzscG8gYwSLv-99" value="" style="endArrow=classic;html=1;rounded=0;entryX=0.5;entryY=0;entryDx=0;entryDy=0;exitX=0;exitY=0.5;exitDx=0;exitDy=0;" edge="1" parent="1" source="Ek323urB8e4tYzdF1iMw-7" target="X7sw5uHQVzscG8gYwSLv-61">
          <mxGeometry width="50" height="50" relative="1" as="geometry">
            <mxPoint x="761" y="-380" as="sourcePoint" />
            <mxPoint x="486" y="-230" as="targetPoint" />
          </mxGeometry>
        </mxCell>
        <mxCell id="X7sw5uHQVzscG8gYwSLv-100" value="" style="endArrow=classic;html=1;rounded=0;entryX=0;entryY=0.5;entryDx=0;entryDy=0;" edge="1" parent="1" source="Ek323urB8e4tYzdF1iMw-13" target="X7sw5uHQVzscG8gYwSLv-70">
          <mxGeometry width="50" height="50" relative="1" as="geometry">
            <mxPoint x="201" y="-260" as="sourcePoint" />
            <mxPoint x="280" y="-30" as="targetPoint" />
          </mxGeometry>
        </mxCell>
        <mxCell id="X7sw5uHQVzscG8gYwSLv-101" value="" style="endArrow=classic;html=1;rounded=0;exitX=1;exitY=0.5;exitDx=0;exitDy=0;entryX=0;entryY=0.5;entryDx=0;entryDy=0;" edge="1" parent="1" source="LJGmnEYm_ZqIbqoqBScH-1" target="X7sw5uHQVzscG8gYwSLv-66">
          <mxGeometry width="50" height="50" relative="1" as="geometry">
            <mxPoint x="166" y="-220" as="sourcePoint" />
            <mxPoint x="556" y="-290" as="targetPoint" />
          </mxGeometry>
        </mxCell>
        <mxCell id="X7sw5uHQVzscG8gYwSLv-102" value="" style="endArrow=classic;html=1;rounded=0;exitX=1;exitY=0.5;exitDx=0;exitDy=0;entryX=0.75;entryY=0;entryDx=0;entryDy=0;" edge="1" parent="1" source="Ek323urB8e4tYzdF1iMw-1" target="X7sw5uHQVzscG8gYwSLv-62">
          <mxGeometry width="50" height="50" relative="1" as="geometry">
            <mxPoint x="680.1999999999998" y="-418.96000000000004" as="sourcePoint" />
            <mxPoint x="486" y="-430" as="targetPoint" />
            <Array as="points">
              <mxPoint x="800" y="170" />
            </Array>
          </mxGeometry>
        </mxCell>
        <mxCell id="X7sw5uHQVzscG8gYwSLv-103" value="" style="endArrow=classic;html=1;rounded=0;entryX=0.5;entryY=1;entryDx=0;entryDy=0;exitX=0.5;exitY=0;exitDx=0;exitDy=0;" edge="1" parent="1" source="Ek323urB8e4tYzdF1iMw-4" target="X7sw5uHQVzscG8gYwSLv-56">
          <mxGeometry width="50" height="50" relative="1" as="geometry">
            <mxPoint x="360.00197578871985" y="-39.99626601139258" as="sourcePoint" />
            <mxPoint x="210" y="310" as="targetPoint" />
          </mxGeometry>
        </mxCell>
        <mxCell id="X7sw5uHQVzscG8gYwSLv-104" value="" style="endArrow=classic;html=1;rounded=0;entryX=0.5;entryY=0;entryDx=0;entryDy=0;exitX=0.5;exitY=1;exitDx=0;exitDy=0;" edge="1" parent="1" source="Ek323urB8e4tYzdF1iMw-17" target="X7sw5uHQVzscG8gYwSLv-73">
          <mxGeometry width="50" height="50" relative="1" as="geometry">
            <mxPoint x="814" y="500" as="sourcePoint" />
            <mxPoint x="554" y="560" as="targetPoint" />
          </mxGeometry>
        </mxCell>
        <mxCell id="X7sw5uHQVzscG8gYwSLv-105" value="" style="endArrow=classic;html=1;rounded=0;exitX=0.25;exitY=0;exitDx=0;exitDy=0;entryX=0.5;entryY=1;entryDx=0;entryDy=0;" edge="1" parent="1" source="Ek323urB8e4tYzdF1iMw-16" target="X7sw5uHQVzscG8gYwSLv-66">
          <mxGeometry width="50" height="50" relative="1" as="geometry">
            <mxPoint x="446" y="-50" as="sourcePoint" />
            <mxPoint x="486" y="-70" as="targetPoint" />
          </mxGeometry>
        </mxCell>
        <mxCell id="X7sw5uHQVzscG8gYwSLv-106" value="" style="endArrow=classic;html=1;rounded=0;exitX=0.417;exitY=0.983;exitDx=0;exitDy=0;entryX=0.317;entryY=0.025;entryDx=0;entryDy=0;entryPerimeter=0;exitPerimeter=0;" edge="1" parent="1" source="Ek323urB8e4tYzdF1iMw-3" target="X7sw5uHQVzscG8gYwSLv-54">
          <mxGeometry width="50" height="50" relative="1" as="geometry">
            <mxPoint x="155" y="530" as="sourcePoint" />
            <mxPoint x="195" y="770" as="targetPoint" />
          </mxGeometry>
        </mxCell>
        <mxCell id="X7sw5uHQVzscG8gYwSLv-108" value="" style="edgeStyle=none;orthogonalLoop=1;jettySize=auto;html=1;rounded=0;exitX=0.25;exitY=0;exitDx=0;exitDy=0;entryX=0.5;entryY=1;entryDx=0;entryDy=0;" edge="1" parent="1" source="Ek323urB8e4tYzdF1iMw-11" target="X7sw5uHQVzscG8gYwSLv-64">
          <mxGeometry width="100" relative="1" as="geometry">
            <mxPoint x="310" y="370" as="sourcePoint" />
            <mxPoint x="410" y="370" as="targetPoint" />
            <Array as="points" />
          </mxGeometry>
        </mxCell>
      </root>
    </mxGraphModel>
  </diagram>
  <diagram id="vSUqR_b8xHBSBWj3IYS1" name="Страница — 3">
    <mxGraphModel grid="1" page="1" gridSize="10" guides="1" tooltips="1" connect="1" arrows="1" fold="1" pageScale="1" pageWidth="827" pageHeight="1169" math="0" shadow="0">
      <root>
        <mxCell id="0" />
        <mxCell id="1" parent="0" />
        <mxCell id="ypRtQwluPzoULqJO_HSZ-1" value="Christopher Nolan" style="rounded=1;whiteSpace=wrap;html=1;arcSize=40;verticalAlign=bottom;spacingBottom=15;" vertex="1" parent="1">
          <mxGeometry x="465" y="40" width="120" height="80" as="geometry" />
        </mxCell>
        <mxCell id="P17B5-ndLjrbrwYhktK0-1" value="1" style="whiteSpace=wrap;html=1;aspect=fixed;fontSize=16;" vertex="1" parent="1">
          <mxGeometry x="510" y="40" width="30" height="30" as="geometry" />
        </mxCell>
        <mxCell id="P17B5-ndLjrbrwYhktK0-3" value="Francis Ford Coppola" style="rounded=1;whiteSpace=wrap;html=1;arcSize=40;verticalAlign=bottom;spacingBottom=15;" vertex="1" parent="1">
          <mxGeometry x="320" y="160" width="120" height="80" as="geometry" />
        </mxCell>
        <mxCell id="P17B5-ndLjrbrwYhktK0-4" value="2" style="whiteSpace=wrap;html=1;aspect=fixed;fontSize=16;" vertex="1" parent="1">
          <mxGeometry x="365" y="160" width="30" height="30" as="geometry" />
        </mxCell>
        <mxCell id="P17B5-ndLjrbrwYhktK0-5" value="Quentin Tarantino" style="rounded=1;whiteSpace=wrap;html=1;arcSize=40;verticalAlign=bottom;spacingBottom=15;" vertex="1" parent="1">
          <mxGeometry x="120" y="160" width="120" height="80" as="geometry" />
        </mxCell>
        <mxCell id="P17B5-ndLjrbrwYhktK0-6" value="3" style="whiteSpace=wrap;html=1;aspect=fixed;fontSize=16;" vertex="1" parent="1">
          <mxGeometry x="165" y="160" width="30" height="30" as="geometry" />
        </mxCell>
        <mxCell id="P17B5-ndLjrbrwYhktK0-7" value="James Cameron" style="rounded=1;whiteSpace=wrap;html=1;arcSize=40;verticalAlign=bottom;spacingBottom=15;" vertex="1" parent="1">
          <mxGeometry x="630" y="200" width="120" height="80" as="geometry" />
        </mxCell>
        <mxCell id="P17B5-ndLjrbrwYhktK0-8" value="6" style="whiteSpace=wrap;html=1;aspect=fixed;fontSize=16;" vertex="1" parent="1">
          <mxGeometry x="675" y="200" width="30" height="30" as="geometry" />
        </mxCell>
        <mxCell id="P17B5-ndLjrbrwYhktK0-9" value="Peter Jackson" style="rounded=1;whiteSpace=wrap;html=1;arcSize=40;verticalAlign=bottom;spacingBottom=15;" vertex="1" parent="1">
          <mxGeometry x="510" y="270" width="120" height="80" as="geometry" />
        </mxCell>
        <mxCell id="P17B5-ndLjrbrwYhktK0-10" value="7" style="whiteSpace=wrap;html=1;aspect=fixed;fontSize=16;" vertex="1" parent="1">
          <mxGeometry x="555" y="270" width="30" height="30" as="geometry" />
        </mxCell>
        <mxCell id="P17B5-ndLjrbrwYhktK0-11" value="Ridley Scott" style="rounded=1;whiteSpace=wrap;html=1;arcSize=40;verticalAlign=bottom;spacingBottom=15;" vertex="1" parent="1">
          <mxGeometry x="365" y="355" width="120" height="80" as="geometry" />
        </mxCell>
        <mxCell id="P17B5-ndLjrbrwYhktK0-12" value="8" style="whiteSpace=wrap;html=1;aspect=fixed;fontSize=16;" vertex="1" parent="1">
          <mxGeometry x="410" y="355" width="30" height="30" as="geometry" />
        </mxCell>
        <mxCell id="P17B5-ndLjrbrwYhktK0-13" value="Steven Spielberg" style="rounded=1;whiteSpace=wrap;html=1;arcSize=40;spacingBottom=15;verticalAlign=bottom;" vertex="1" parent="1">
          <mxGeometry x="40" y="60" width="120" height="80" as="geometry" />
        </mxCell>
        <mxCell id="P17B5-ndLjrbrwYhktK0-14" value="4" style="whiteSpace=wrap;html=1;aspect=fixed;fontSize=16;" vertex="1" parent="1">
          <mxGeometry x="85" y="60" width="30" height="30" as="geometry" />
        </mxCell>
        <mxCell id="P17B5-ndLjrbrwYhktK0-15" value="Guillermo del Toro" style="rounded=1;whiteSpace=wrap;html=1;arcSize=40;spacingBottom=15;verticalAlign=bottom;" vertex="1" parent="1">
          <mxGeometry x="25" y="385" width="120" height="80" as="geometry" />
        </mxCell>
        <mxCell id="P17B5-ndLjrbrwYhktK0-16" value="9" style="whiteSpace=wrap;html=1;aspect=fixed;fontSize=16;" vertex="1" parent="1">
          <mxGeometry x="70" y="385" width="30" height="30" as="geometry" />
        </mxCell>
        <mxCell id="P17B5-ndLjrbrwYhktK0-17" value="Martin Scorsese" style="rounded=1;whiteSpace=wrap;html=1;arcSize=40;spacingBottom=15;verticalAlign=bottom;" vertex="1" parent="1">
          <mxGeometry x="365" y="250" width="120" height="80" as="geometry" />
        </mxCell>
        <mxCell id="P17B5-ndLjrbrwYhktK0-18" value="5" style="whiteSpace=wrap;html=1;aspect=fixed;fontSize=16;" vertex="1" parent="1">
          <mxGeometry x="410" y="250" width="30" height="30" as="geometry" />
        </mxCell>
        <mxCell id="P17B5-ndLjrbrwYhktK0-19" value="Sofia Coppola" style="rounded=1;whiteSpace=wrap;html=1;arcSize=40;spacingBottom=15;verticalAlign=bottom;" vertex="1" parent="1">
          <mxGeometry x="580" y="360" width="120" height="80" as="geometry" />
        </mxCell>
        <mxCell id="P17B5-ndLjrbrwYhktK0-20" value="10" style="whiteSpace=wrap;html=1;aspect=fixed;fontSize=16;" vertex="1" parent="1">
          <mxGeometry x="625" y="360" width="30" height="30" as="geometry" />
        </mxCell>
        <mxCell id="fB7GuR7_4I7RpIz-MZ87-1" value="Marlon Brando" style="ellipse;whiteSpace=wrap;html=1;aspect=fixed;verticalAlign=bottom;" vertex="1" parent="1">
          <mxGeometry x="605" y="30" width="80" height="80" as="geometry" />
        </mxCell>
        <mxCell id="fB7GuR7_4I7RpIz-MZ87-2" value="2" style="ellipse;whiteSpace=wrap;html=1;aspect=fixed;fontSize=16;" vertex="1" parent="1">
          <mxGeometry x="630" y="30" width="30" height="30" as="geometry" />
        </mxCell>
        <mxCell id="fB7GuR7_4I7RpIz-MZ87-3" value="Leonardo DiCaprio" style="ellipse;whiteSpace=wrap;html=1;aspect=fixed;verticalAlign=bottom;" vertex="1" parent="1">
          <mxGeometry x="240" y="40" width="80" height="80" as="geometry" />
        </mxCell>
        <mxCell id="fB7GuR7_4I7RpIz-MZ87-4" value="1" style="ellipse;whiteSpace=wrap;html=1;aspect=fixed;fontSize=16;" vertex="1" parent="1">
          <mxGeometry x="265" y="40" width="30" height="30" as="geometry" />
        </mxCell>
        <mxCell id="fB7GuR7_4I7RpIz-MZ87-5" value="Samuel L. Jackson" style="ellipse;whiteSpace=wrap;html=1;aspect=fixed;verticalAlign=bottom;" vertex="1" parent="1">
          <mxGeometry x="340" y="40" width="80" height="80" as="geometry" />
        </mxCell>
        <mxCell id="fB7GuR7_4I7RpIz-MZ87-6" value="3" style="ellipse;whiteSpace=wrap;html=1;aspect=fixed;fontSize=16;" vertex="1" parent="1">
          <mxGeometry x="365" y="40" width="30" height="30" as="geometry" />
        </mxCell>
        <mxCell id="fB7GuR7_4I7RpIz-MZ87-7" value="Christian&lt;div&gt;Bale&lt;/div&gt;" style="ellipse;whiteSpace=wrap;html=1;aspect=fixed;verticalAlign=bottom;" vertex="1" parent="1">
          <mxGeometry x="215" y="360" width="80" height="80" as="geometry" />
        </mxCell>
        <mxCell id="fB7GuR7_4I7RpIz-MZ87-8" value="4" style="ellipse;whiteSpace=wrap;html=1;aspect=fixed;fontSize=16;" vertex="1" parent="1">
          <mxGeometry x="240" y="360" width="30" height="30" as="geometry" />
        </mxCell>
        <mxCell id="fB7GuR7_4I7RpIz-MZ87-9" value="Tom&lt;div&gt;Hanks&lt;/div&gt;" style="ellipse;whiteSpace=wrap;html=1;aspect=fixed;verticalAlign=bottom;" vertex="1" parent="1">
          <mxGeometry x="695" y="70" width="80" height="80" as="geometry" />
        </mxCell>
        <mxCell id="fB7GuR7_4I7RpIz-MZ87-10" value="5" style="ellipse;whiteSpace=wrap;html=1;aspect=fixed;fontSize=16;" vertex="1" parent="1">
          <mxGeometry x="720" y="70" width="30" height="30" as="geometry" />
        </mxCell>
        <mxCell id="fB7GuR7_4I7RpIz-MZ87-11" value="&lt;div&gt;Keanu Reeves&lt;/div&gt;" style="ellipse;whiteSpace=wrap;html=1;aspect=fixed;verticalAlign=bottom;" vertex="1" parent="1">
          <mxGeometry x="200" y="455" width="80" height="80" as="geometry" />
        </mxCell>
        <mxCell id="fB7GuR7_4I7RpIz-MZ87-12" value="6" style="ellipse;whiteSpace=wrap;html=1;aspect=fixed;fontSize=16;" vertex="1" parent="1">
          <mxGeometry x="225" y="455" width="30" height="30" as="geometry" />
        </mxCell>
        <mxCell id="fB7GuR7_4I7RpIz-MZ87-13" value="Brad&lt;div&gt;Pitt&lt;/div&gt;" style="ellipse;whiteSpace=wrap;html=1;aspect=fixed;verticalAlign=bottom;" vertex="1" parent="1">
          <mxGeometry x="380" y="480" width="80" height="80" as="geometry" />
        </mxCell>
        <mxCell id="fB7GuR7_4I7RpIz-MZ87-14" value="7" style="ellipse;whiteSpace=wrap;html=1;aspect=fixed;fontSize=16;" vertex="1" parent="1">
          <mxGeometry x="405" y="480" width="30" height="30" as="geometry" />
        </mxCell>
        <mxCell id="fB7GuR7_4I7RpIz-MZ87-15" value="&lt;div&gt;Morgan Freeman&lt;/div&gt;" style="ellipse;whiteSpace=wrap;html=1;aspect=fixed;verticalAlign=bottom;" vertex="1" parent="1">
          <mxGeometry x="135" y="270" width="80" height="80" as="geometry" />
        </mxCell>
        <mxCell id="fB7GuR7_4I7RpIz-MZ87-16" value="8" style="ellipse;whiteSpace=wrap;html=1;aspect=fixed;fontSize=16;" vertex="1" parent="1">
          <mxGeometry x="160" y="270" width="30" height="30" as="geometry" />
        </mxCell>
        <mxCell id="fB7GuR7_4I7RpIz-MZ87-17" value="Elijah&lt;div&gt;Wood&lt;/div&gt;" style="ellipse;whiteSpace=wrap;html=1;aspect=fixed;verticalAlign=bottom;" vertex="1" parent="1">
          <mxGeometry x="30" y="230" width="80" height="80" as="geometry" />
        </mxCell>
        <mxCell id="fB7GuR7_4I7RpIz-MZ87-18" value="9" style="ellipse;whiteSpace=wrap;html=1;aspect=fixed;fontSize=16;" vertex="1" parent="1">
          <mxGeometry x="55" y="230" width="30" height="30" as="geometry" />
        </mxCell>
        <mxCell id="fB7GuR7_4I7RpIz-MZ87-19" value="&#39;Matthew McConaughey" style="ellipse;whiteSpace=wrap;html=1;aspect=fixed;verticalAlign=bottom;" vertex="1" parent="1">
          <mxGeometry x="720" y="360" width="80" height="80" as="geometry" />
        </mxCell>
        <mxCell id="fB7GuR7_4I7RpIz-MZ87-20" value="10" style="ellipse;whiteSpace=wrap;html=1;aspect=fixed;fontSize=16;" vertex="1" parent="1">
          <mxGeometry x="745" y="360" width="30" height="30" as="geometry" />
        </mxCell>
        <mxCell id="fB7GuR7_4I7RpIz-MZ87-21" value="" style="endArrow=classic;html=1;rounded=0;exitX=0.5;exitY=1;exitDx=0;exitDy=0;entryX=0.833;entryY=0.002;entryDx=0;entryDy=0;entryPerimeter=0;" edge="1" parent="1" source="fB7GuR7_4I7RpIz-MZ87-3" target="P17B5-ndLjrbrwYhktK0-5">
          <mxGeometry width="50" height="50" relative="1" as="geometry">
            <mxPoint x="410" y="400" as="sourcePoint" />
            <mxPoint x="460" y="350" as="targetPoint" />
          </mxGeometry>
        </mxCell>
        <mxCell id="fB7GuR7_4I7RpIz-MZ87-22" value="" style="endArrow=classic;html=1;rounded=0;entryX=0.194;entryY=0.023;entryDx=0;entryDy=0;entryPerimeter=0;" edge="1" parent="1" target="P17B5-ndLjrbrwYhktK0-3">
          <mxGeometry width="50" height="50" relative="1" as="geometry">
            <mxPoint x="280" y="120" as="sourcePoint" />
            <mxPoint x="460" y="350" as="targetPoint" />
          </mxGeometry>
        </mxCell>
        <mxCell id="fB7GuR7_4I7RpIz-MZ87-23" value="" style="endArrow=classic;html=1;rounded=0;entryX=1;entryY=0.5;entryDx=0;entryDy=0;exitX=0;exitY=0.5;exitDx=0;exitDy=0;" edge="1" parent="1" source="fB7GuR7_4I7RpIz-MZ87-3" target="P17B5-ndLjrbrwYhktK0-13">
          <mxGeometry width="50" height="50" relative="1" as="geometry">
            <mxPoint x="170" y="130" as="sourcePoint" />
            <mxPoint x="220" y="80" as="targetPoint" />
            <Array as="points">
              <mxPoint x="200" y="80" />
            </Array>
          </mxGeometry>
        </mxCell>
        <mxCell id="fB7GuR7_4I7RpIz-MZ87-24" value="" style="endArrow=classic;html=1;rounded=0;entryX=0.5;entryY=0;entryDx=0;entryDy=0;" edge="1" parent="1" source="fB7GuR7_4I7RpIz-MZ87-1" target="P17B5-ndLjrbrwYhktK0-18">
          <mxGeometry width="50" height="50" relative="1" as="geometry">
            <mxPoint x="410" y="80" as="sourcePoint" />
            <mxPoint x="460" y="30" as="targetPoint" />
            <Array as="points">
              <mxPoint x="540" y="220" />
            </Array>
          </mxGeometry>
        </mxCell>
        <mxCell id="fB7GuR7_4I7RpIz-MZ87-25" value="" style="endArrow=classic;html=1;rounded=0;exitX=0.5;exitY=1;exitDx=0;exitDy=0;entryX=1;entryY=0;entryDx=0;entryDy=0;" edge="1" parent="1" source="fB7GuR7_4I7RpIz-MZ87-5" target="P17B5-ndLjrbrwYhktK0-4">
          <mxGeometry width="50" height="50" relative="1" as="geometry">
            <mxPoint x="410" y="350" as="sourcePoint" />
            <mxPoint x="460" y="300" as="targetPoint" />
          </mxGeometry>
        </mxCell>
        <mxCell id="fB7GuR7_4I7RpIz-MZ87-26" value="" style="endArrow=classic;html=1;rounded=0;entryX=0.5;entryY=0;entryDx=0;entryDy=0;exitX=0.5;exitY=1;exitDx=0;exitDy=0;" edge="1" parent="1" source="fB7GuR7_4I7RpIz-MZ87-9" target="P17B5-ndLjrbrwYhktK0-8">
          <mxGeometry width="50" height="50" relative="1" as="geometry">
            <mxPoint x="410" y="350" as="sourcePoint" />
            <mxPoint x="460" y="300" as="targetPoint" />
          </mxGeometry>
        </mxCell>
        <mxCell id="fB7GuR7_4I7RpIz-MZ87-27" value="" style="endArrow=classic;html=1;rounded=0;exitX=0.5;exitY=0;exitDx=0;exitDy=0;entryX=0.5;entryY=1;entryDx=0;entryDy=0;" edge="1" parent="1" source="fB7GuR7_4I7RpIz-MZ87-16" target="P17B5-ndLjrbrwYhktK0-5">
          <mxGeometry width="50" height="50" relative="1" as="geometry">
            <mxPoint x="410" y="490" as="sourcePoint" />
            <mxPoint x="460" y="440" as="targetPoint" />
          </mxGeometry>
        </mxCell>
        <mxCell id="fB7GuR7_4I7RpIz-MZ87-28" value="" style="endArrow=classic;html=1;rounded=0;exitX=0.5;exitY=0;exitDx=0;exitDy=0;entryX=0.5;entryY=1;entryDx=0;entryDy=0;" edge="1" parent="1" source="fB7GuR7_4I7RpIz-MZ87-18" target="P17B5-ndLjrbrwYhktK0-13">
          <mxGeometry width="50" height="50" relative="1" as="geometry">
            <mxPoint x="410" y="210" as="sourcePoint" />
            <mxPoint x="460" y="160" as="targetPoint" />
          </mxGeometry>
        </mxCell>
        <mxCell id="fB7GuR7_4I7RpIz-MZ87-29" value="" style="endArrow=classic;html=1;rounded=0;exitX=0.615;exitY=1.013;exitDx=0;exitDy=0;exitPerimeter=0;entryX=0.75;entryY=0;entryDx=0;entryDy=0;" edge="1" parent="1" source="fB7GuR7_4I7RpIz-MZ87-1" target="P17B5-ndLjrbrwYhktK0-9">
          <mxGeometry width="50" height="50" relative="1" as="geometry">
            <mxPoint x="410" y="150" as="sourcePoint" />
            <mxPoint x="460" y="100" as="targetPoint" />
          </mxGeometry>
        </mxCell>
        <mxCell id="fB7GuR7_4I7RpIz-MZ87-30" value="" style="endArrow=classic;html=1;rounded=0;entryX=0.118;entryY=0.898;entryDx=0;entryDy=0;entryPerimeter=0;" edge="1" parent="1" source="fB7GuR7_4I7RpIz-MZ87-15" target="P17B5-ndLjrbrwYhktK0-17">
          <mxGeometry width="50" height="50" relative="1" as="geometry">
            <mxPoint x="410" y="150" as="sourcePoint" />
            <mxPoint x="460" y="100" as="targetPoint" />
          </mxGeometry>
        </mxCell>
        <mxCell id="fB7GuR7_4I7RpIz-MZ87-31" value="" style="endArrow=classic;html=1;rounded=0;entryX=1;entryY=0.5;entryDx=0;entryDy=0;" edge="1" parent="1" source="fB7GuR7_4I7RpIz-MZ87-19" target="P17B5-ndLjrbrwYhktK0-19">
          <mxGeometry width="50" height="50" relative="1" as="geometry">
            <mxPoint x="410" y="510" as="sourcePoint" />
            <mxPoint x="460" y="460" as="targetPoint" />
          </mxGeometry>
        </mxCell>
        <mxCell id="fB7GuR7_4I7RpIz-MZ87-32" value="" style="endArrow=classic;html=1;rounded=0;exitX=0.5;exitY=0;exitDx=0;exitDy=0;entryX=0.5;entryY=1;entryDx=0;entryDy=0;" edge="1" parent="1" source="fB7GuR7_4I7RpIz-MZ87-14" target="P17B5-ndLjrbrwYhktK0-11">
          <mxGeometry width="50" height="50" relative="1" as="geometry">
            <mxPoint x="410" y="510" as="sourcePoint" />
            <mxPoint x="460" y="460" as="targetPoint" />
          </mxGeometry>
        </mxCell>
        <mxCell id="fB7GuR7_4I7RpIz-MZ87-34" value="" style="endArrow=classic;html=1;rounded=0;exitX=1;exitY=0.5;exitDx=0;exitDy=0;" edge="1" parent="1" source="fB7GuR7_4I7RpIz-MZ87-5" target="ypRtQwluPzoULqJO_HSZ-1">
          <mxGeometry width="50" height="50" relative="1" as="geometry">
            <mxPoint x="410" y="370" as="sourcePoint" />
            <mxPoint x="460" y="320" as="targetPoint" />
          </mxGeometry>
        </mxCell>
      </root>
    </mxGraphModel>
  </diagram>
  <diagram name="Страница — 4" id="WxBaZTRmMqp9EUkfsKrQ">
    <mxGraphModel grid="1" page="1" gridSize="10" guides="1" tooltips="1" connect="1" arrows="1" fold="1" pageScale="1" pageWidth="827" pageHeight="1169" math="0" shadow="0">
      <root>
        <mxCell id="WdZYOaa68SKTRnS03OHr-0" />
        <mxCell id="WdZYOaa68SKTRnS03OHr-1" parent="WdZYOaa68SKTRnS03OHr-0" />
        <mxCell id="WdZYOaa68SKTRnS03OHr-2" value="Marlon Brando" style="ellipse;whiteSpace=wrap;html=1;aspect=fixed;verticalAlign=bottom;" parent="WdZYOaa68SKTRnS03OHr-1" vertex="1">
          <mxGeometry x="40" y="190" width="80" height="80" as="geometry" />
        </mxCell>
        <mxCell id="WdZYOaa68SKTRnS03OHr-3" value="2" style="ellipse;whiteSpace=wrap;html=1;aspect=fixed;fontSize=16;" parent="WdZYOaa68SKTRnS03OHr-1" vertex="1">
          <mxGeometry x="65" y="190" width="30" height="30" as="geometry" />
        </mxCell>
        <mxCell id="-pPp3nLcoFFNOr4NwQcS-13" style="edgeStyle=orthogonalEdgeStyle;rounded=0;orthogonalLoop=1;jettySize=auto;html=1;" edge="1" parent="WdZYOaa68SKTRnS03OHr-1">
          <mxGeometry relative="1" as="geometry">
            <mxPoint x="100" y="150" as="targetPoint" />
            <mxPoint x="100" y="150" as="sourcePoint" />
          </mxGeometry>
        </mxCell>
        <mxCell id="WdZYOaa68SKTRnS03OHr-4" value="Leonardo DiCaprio" style="ellipse;whiteSpace=wrap;html=1;aspect=fixed;verticalAlign=bottom;" parent="WdZYOaa68SKTRnS03OHr-1" vertex="1">
          <mxGeometry x="40" y="80" width="80" height="80" as="geometry" />
        </mxCell>
        <mxCell id="WdZYOaa68SKTRnS03OHr-5" value="1" style="ellipse;whiteSpace=wrap;html=1;aspect=fixed;fontSize=16;" parent="WdZYOaa68SKTRnS03OHr-1" vertex="1">
          <mxGeometry x="65" y="80" width="30" height="30" as="geometry" />
        </mxCell>
        <mxCell id="WdZYOaa68SKTRnS03OHr-6" value="Samuel L. Jackson" style="ellipse;whiteSpace=wrap;html=1;aspect=fixed;verticalAlign=bottom;" parent="WdZYOaa68SKTRnS03OHr-1" vertex="1">
          <mxGeometry x="160" y="90" width="80" height="80" as="geometry" />
        </mxCell>
        <mxCell id="WdZYOaa68SKTRnS03OHr-7" value="3" style="ellipse;whiteSpace=wrap;html=1;aspect=fixed;fontSize=16;" parent="WdZYOaa68SKTRnS03OHr-1" vertex="1">
          <mxGeometry x="185" y="90" width="30" height="30" as="geometry" />
        </mxCell>
        <mxCell id="WdZYOaa68SKTRnS03OHr-8" value="Christian&lt;div&gt;Bale&lt;/div&gt;" style="ellipse;whiteSpace=wrap;html=1;aspect=fixed;verticalAlign=bottom;" parent="WdZYOaa68SKTRnS03OHr-1" vertex="1">
          <mxGeometry x="280" y="30" width="80" height="80" as="geometry" />
        </mxCell>
        <mxCell id="WdZYOaa68SKTRnS03OHr-9" value="4" style="ellipse;whiteSpace=wrap;html=1;aspect=fixed;fontSize=16;" parent="WdZYOaa68SKTRnS03OHr-1" vertex="1">
          <mxGeometry x="305" y="30" width="30" height="30" as="geometry" />
        </mxCell>
        <mxCell id="WdZYOaa68SKTRnS03OHr-10" value="Tom&lt;div&gt;Hanks&lt;/div&gt;" style="ellipse;whiteSpace=wrap;html=1;aspect=fixed;verticalAlign=bottom;" parent="WdZYOaa68SKTRnS03OHr-1" vertex="1">
          <mxGeometry x="90" y="320" width="80" height="80" as="geometry" />
        </mxCell>
        <mxCell id="WdZYOaa68SKTRnS03OHr-11" value="5" style="ellipse;whiteSpace=wrap;html=1;aspect=fixed;fontSize=16;" parent="WdZYOaa68SKTRnS03OHr-1" vertex="1">
          <mxGeometry x="115" y="320" width="30" height="30" as="geometry" />
        </mxCell>
        <mxCell id="WdZYOaa68SKTRnS03OHr-12" value="&lt;div&gt;Keanu Reeves&lt;/div&gt;" style="ellipse;whiteSpace=wrap;html=1;aspect=fixed;verticalAlign=bottom;" parent="WdZYOaa68SKTRnS03OHr-1" vertex="1">
          <mxGeometry x="200" y="360" width="80" height="80" as="geometry" />
        </mxCell>
        <mxCell id="WdZYOaa68SKTRnS03OHr-13" value="6" style="ellipse;whiteSpace=wrap;html=1;aspect=fixed;fontSize=16;" parent="WdZYOaa68SKTRnS03OHr-1" vertex="1">
          <mxGeometry x="225" y="360" width="30" height="30" as="geometry" />
        </mxCell>
        <mxCell id="WdZYOaa68SKTRnS03OHr-14" value="Brad&lt;div&gt;Pitt&lt;/div&gt;" style="ellipse;whiteSpace=wrap;html=1;aspect=fixed;verticalAlign=bottom;" parent="WdZYOaa68SKTRnS03OHr-1" vertex="1">
          <mxGeometry x="40" y="440" width="80" height="80" as="geometry" />
        </mxCell>
        <mxCell id="WdZYOaa68SKTRnS03OHr-15" value="7" style="ellipse;whiteSpace=wrap;html=1;aspect=fixed;fontSize=16;" parent="WdZYOaa68SKTRnS03OHr-1" vertex="1">
          <mxGeometry x="65" y="440" width="30" height="30" as="geometry" />
        </mxCell>
        <mxCell id="WdZYOaa68SKTRnS03OHr-16" value="&lt;div&gt;Morgan Freeman&lt;/div&gt;" style="ellipse;whiteSpace=wrap;html=1;aspect=fixed;verticalAlign=bottom;" parent="WdZYOaa68SKTRnS03OHr-1" vertex="1">
          <mxGeometry x="160" y="220" width="80" height="80" as="geometry" />
        </mxCell>
        <mxCell id="WdZYOaa68SKTRnS03OHr-17" value="8" style="ellipse;whiteSpace=wrap;html=1;aspect=fixed;fontSize=16;" parent="WdZYOaa68SKTRnS03OHr-1" vertex="1">
          <mxGeometry x="185" y="220" width="30" height="30" as="geometry" />
        </mxCell>
        <mxCell id="WdZYOaa68SKTRnS03OHr-18" value="Elijah&lt;div&gt;Wood&lt;/div&gt;" style="ellipse;whiteSpace=wrap;html=1;aspect=fixed;verticalAlign=bottom;" parent="WdZYOaa68SKTRnS03OHr-1" vertex="1">
          <mxGeometry x="350" y="150" width="80" height="80" as="geometry" />
        </mxCell>
        <mxCell id="WdZYOaa68SKTRnS03OHr-19" value="9" style="ellipse;whiteSpace=wrap;html=1;aspect=fixed;fontSize=16;" parent="WdZYOaa68SKTRnS03OHr-1" vertex="1">
          <mxGeometry x="375" y="150" width="30" height="30" as="geometry" />
        </mxCell>
        <mxCell id="WdZYOaa68SKTRnS03OHr-20" value="&#39;Matthew McConaughey" style="ellipse;whiteSpace=wrap;html=1;aspect=fixed;verticalAlign=bottom;" parent="WdZYOaa68SKTRnS03OHr-1" vertex="1">
          <mxGeometry x="350" y="280" width="80" height="80" as="geometry" />
        </mxCell>
        <mxCell id="WdZYOaa68SKTRnS03OHr-21" value="10" style="ellipse;whiteSpace=wrap;html=1;aspect=fixed;fontSize=16;" parent="WdZYOaa68SKTRnS03OHr-1" vertex="1">
          <mxGeometry x="375" y="280" width="30" height="30" as="geometry" />
        </mxCell>
        <mxCell id="-pPp3nLcoFFNOr4NwQcS-0" value="" style="endArrow=classic;html=1;rounded=0;exitX=0.5;exitY=1;exitDx=0;exitDy=0;entryX=0.5;entryY=0;entryDx=0;entryDy=0;" edge="1" parent="WdZYOaa68SKTRnS03OHr-1" source="WdZYOaa68SKTRnS03OHr-4" target="WdZYOaa68SKTRnS03OHr-3">
          <mxGeometry width="50" height="50" relative="1" as="geometry">
            <mxPoint x="220" y="260" as="sourcePoint" />
            <mxPoint x="270" y="210" as="targetPoint" />
          </mxGeometry>
        </mxCell>
        <mxCell id="-pPp3nLcoFFNOr4NwQcS-1" value="" style="endArrow=classic;html=1;rounded=0;entryX=0.5;entryY=0;entryDx=0;entryDy=0;" edge="1" parent="WdZYOaa68SKTRnS03OHr-1" source="WdZYOaa68SKTRnS03OHr-2" target="WdZYOaa68SKTRnS03OHr-15">
          <mxGeometry width="50" height="50" relative="1" as="geometry">
            <mxPoint x="630" y="410" as="sourcePoint" />
            <mxPoint x="680" y="360" as="targetPoint" />
          </mxGeometry>
        </mxCell>
        <mxCell id="-pPp3nLcoFFNOr4NwQcS-2" value="" style="endArrow=classic;html=1;rounded=0;" edge="1" parent="WdZYOaa68SKTRnS03OHr-1" source="WdZYOaa68SKTRnS03OHr-18" target="WdZYOaa68SKTRnS03OHr-8">
          <mxGeometry width="50" height="50" relative="1" as="geometry">
            <mxPoint x="630" y="410" as="sourcePoint" />
            <mxPoint x="680" y="360" as="targetPoint" />
          </mxGeometry>
        </mxCell>
        <mxCell id="-pPp3nLcoFFNOr4NwQcS-3" value="" style="endArrow=classic;html=1;rounded=0;entryX=0.5;entryY=1;entryDx=0;entryDy=0;" edge="1" parent="WdZYOaa68SKTRnS03OHr-1" source="WdZYOaa68SKTRnS03OHr-16" target="WdZYOaa68SKTRnS03OHr-6">
          <mxGeometry width="50" height="50" relative="1" as="geometry">
            <mxPoint x="630" y="410" as="sourcePoint" />
            <mxPoint x="680" y="360" as="targetPoint" />
          </mxGeometry>
        </mxCell>
        <mxCell id="-pPp3nLcoFFNOr4NwQcS-4" value="" style="endArrow=classic;html=1;rounded=0;exitX=0.077;exitY=0.846;exitDx=0;exitDy=0;exitPerimeter=0;entryX=1;entryY=0;entryDx=0;entryDy=0;" edge="1" parent="WdZYOaa68SKTRnS03OHr-1" source="WdZYOaa68SKTRnS03OHr-6" target="WdZYOaa68SKTRnS03OHr-2">
          <mxGeometry width="50" height="50" relative="1" as="geometry">
            <mxPoint x="190" y="260" as="sourcePoint" />
            <mxPoint x="240" y="210" as="targetPoint" />
          </mxGeometry>
        </mxCell>
        <mxCell id="-pPp3nLcoFFNOr4NwQcS-5" value="" style="endArrow=classic;html=1;rounded=0;exitX=0.5;exitY=1;exitDx=0;exitDy=0;" edge="1" parent="WdZYOaa68SKTRnS03OHr-1" target="WdZYOaa68SKTRnS03OHr-10">
          <mxGeometry width="50" height="50" relative="1" as="geometry">
            <mxPoint x="80" y="270" as="sourcePoint" />
            <mxPoint x="70" y="380" as="targetPoint" />
          </mxGeometry>
        </mxCell>
        <mxCell id="-pPp3nLcoFFNOr4NwQcS-6" value="" style="endArrow=classic;html=1;rounded=0;exitX=1;exitY=1;exitDx=0;exitDy=0;entryX=0;entryY=0.5;entryDx=0;entryDy=0;" edge="1" parent="WdZYOaa68SKTRnS03OHr-1" source="WdZYOaa68SKTRnS03OHr-10" target="WdZYOaa68SKTRnS03OHr-12">
          <mxGeometry width="50" height="50" relative="1" as="geometry">
            <mxPoint x="670" y="420" as="sourcePoint" />
            <mxPoint x="430" y="440" as="targetPoint" />
          </mxGeometry>
        </mxCell>
        <mxCell id="-pPp3nLcoFFNOr4NwQcS-7" value="" style="endArrow=classic;html=1;rounded=0;entryX=-0.002;entryY=0.589;entryDx=0;entryDy=0;exitX=0.5;exitY=0;exitDx=0;exitDy=0;entryPerimeter=0;" edge="1" parent="WdZYOaa68SKTRnS03OHr-1" source="WdZYOaa68SKTRnS03OHr-5" target="WdZYOaa68SKTRnS03OHr-8">
          <mxGeometry width="50" height="50" relative="1" as="geometry">
            <mxPoint x="220" y="260" as="sourcePoint" />
            <mxPoint x="270" y="210" as="targetPoint" />
            <Array as="points">
              <mxPoint x="180" y="50" />
            </Array>
          </mxGeometry>
        </mxCell>
        <mxCell id="-pPp3nLcoFFNOr4NwQcS-8" value="" style="endArrow=classic;html=1;rounded=0;exitX=1;exitY=0;exitDx=0;exitDy=0;entryX=0;entryY=0;entryDx=0;entryDy=0;" edge="1" parent="WdZYOaa68SKTRnS03OHr-1" source="WdZYOaa68SKTRnS03OHr-4" target="WdZYOaa68SKTRnS03OHr-6">
          <mxGeometry width="50" height="50" relative="1" as="geometry">
            <mxPoint x="220" y="260" as="sourcePoint" />
            <mxPoint x="270" y="210" as="targetPoint" />
            <Array as="points">
              <mxPoint x="140" y="90" />
            </Array>
          </mxGeometry>
        </mxCell>
        <mxCell id="-pPp3nLcoFFNOr4NwQcS-14" value="" style="endArrow=classic;html=1;rounded=0;exitX=0.5;exitY=1;exitDx=0;exitDy=0;" edge="1" parent="WdZYOaa68SKTRnS03OHr-1" source="WdZYOaa68SKTRnS03OHr-16" target="WdZYOaa68SKTRnS03OHr-10">
          <mxGeometry width="50" height="50" relative="1" as="geometry">
            <mxPoint x="310" y="340" as="sourcePoint" />
            <mxPoint x="360" y="290" as="targetPoint" />
          </mxGeometry>
        </mxCell>
        <mxCell id="-pPp3nLcoFFNOr4NwQcS-16" value="" style="endArrow=classic;html=1;rounded=0;entryX=1;entryY=0;entryDx=0;entryDy=0;" edge="1" parent="WdZYOaa68SKTRnS03OHr-1" target="WdZYOaa68SKTRnS03OHr-20">
          <mxGeometry width="50" height="50" relative="1" as="geometry">
            <mxPoint x="430" y="320" as="sourcePoint" />
            <mxPoint x="440" y="270" as="targetPoint" />
            <Array as="points">
              <mxPoint x="450" y="300" />
            </Array>
          </mxGeometry>
        </mxCell>
        <mxCell id="-pPp3nLcoFFNOr4NwQcS-17" value="" style="endArrow=classic;html=1;rounded=0;" edge="1" parent="WdZYOaa68SKTRnS03OHr-1" target="WdZYOaa68SKTRnS03OHr-16">
          <mxGeometry width="50" height="50" relative="1" as="geometry">
            <mxPoint x="120" y="480" as="sourcePoint" />
            <mxPoint x="170" y="430" as="targetPoint" />
            <Array as="points">
              <mxPoint x="360" y="460" />
            </Array>
          </mxGeometry>
        </mxCell>
        <mxCell id="-pPp3nLcoFFNOr4NwQcS-18" value="" style="endArrow=classic;html=1;rounded=0;exitX=0;exitY=0.5;exitDx=0;exitDy=0;entryX=1.005;entryY=0.571;entryDx=0;entryDy=0;entryPerimeter=0;" edge="1" parent="WdZYOaa68SKTRnS03OHr-1" source="WdZYOaa68SKTRnS03OHr-6" target="WdZYOaa68SKTRnS03OHr-4">
          <mxGeometry width="50" height="50" relative="1" as="geometry">
            <mxPoint x="310" y="150" as="sourcePoint" />
            <mxPoint x="360" y="100" as="targetPoint" />
          </mxGeometry>
        </mxCell>
      </root>
    </mxGraphModel>
  </diagram>
</mxfile>
